<?xml version="1.0" encoding="UTF-8"?>
<svg id="Ebene_1" data-name="Ebene 1" xmlns="http://www.w3.org/2000/svg" viewBox="0 0 1329.75 1073.65">
    <defs>
        <style>
            .cls-1 {
                fill: #020202;
            }

            .cls-1, .cls-2, .cls-3, .cls-4, .cls-5, .cls-6, .cls-7, .cls-8, .cls-9, .cls-10, .cls-11, .cls-12, .cls-13, .cls-14, .cls-15, .cls-16, .cls-17, .cls-18, .cls-19, .cls-20, .cls-21, .cls-22, .cls-23, .cls-24, .cls-25, .cls-26, .cls-27, .cls-28, .cls-29, .cls-30, .cls-31 {
                stroke-width: 0px;
            }

            .cls-2 {
                fill: #040404;
            }

            .cls-3 {
                fill: #a9adae;
            }

            .cls-4 {
                fill: #016aa6;
            }

            .cls-5 {
                fill: #000;
            }

            .cls-6 {
                fill: #b8aea0;
            }

            .cls-7 {
                fill: #debd93;
            }

            .cls-8 {
                fill: #0b6da0;
            }

            .cls-9 {
                fill: #d7ba98;
            }

            .cls-10 {
                fill: #a6b2ad;
            }

            .cls-11 {
                fill: #050505;
            }

            .cls-12 {
                fill: #fdfcfc;
            }

            .cls-13 {
                fill: #2b7048;
            }

            .cls-14 {
                fill: transparent;
            }

            .cls-15 {
                fill: #668676;
            }

            .cls-16 {
                fill: #010101;
            }

            .cls-17 {
                fill: #abb3b1;
            }

            .cls-18 {
                fill: #eaefea;
            }

            .cls-19 {
                fill: transparent;
            }

            .cls-20 {
                fill: #b3b3b6;
            }

            .cls-21 {
                fill: #d1c2c2;
            }

            .cls-22 {
                fill: #d8ba93;
            }

            .cls-23 {
                fill: #946369;
            }

            .cls-24 {
                fill: #fdcc01;
            }

            .cls-25 {
                fill: #ab987f;
            }

            .cls-26 {
                fill: #ca2e2b;
            }

            .cls-27 {
                fill: transparent;
            }

            .cls-28 {
                fill: #006aa6;
            }

            .cls-29 {
                fill: #030303;
            }

            .cls-30 {
                fill: #0c6e9f;
            }

            .cls-31 {
                fill: transparent;
            }
        </style>
    </defs>
    <g>
        <path class="cls-31"
              d="M0,864.08C0,576.06,0,288.03,0,0c443.25,0,886.5,0,1329.75,0,0,288.03,0,576.06,0,864.08-443.25,0-886.5,0-1329.75,0ZM658.55,362.56c-6.38-9.42-13.45-19.01-22.44-27.08-7.59-6.81-15.88-12.4-25.83-14.8-21.61-5.22-40.15,1.71-56.47,15.6-10.25,8.72-16.65,20.32-21.57,32.62-3.76,9.4-5.04,19.49-5,29.56.04,12.96,1.19,25.84,7,37.81,4.12,8.49,7.93,17.12,12.22,25.52,6.38,12.5,14.85,23.57,24.31,33.88,7.96,8.67,15.73,17.55,24.12,25.77,7.85,7.69,16.55,14.49,24.62,21.97,6.59,6.12,14.09,5.51,21.74,3.5,2.94-.77,5.67-2.66,5.54-6.11,1.99.89,3.97,2.18,6.13,2.68,11.35,2.67,21.5-.4,30.43-7.41,6.24-4.9,12.35-10.05,17.93-15.67,8.84-8.89,17.41-18.07,25.7-27.47,7.86-8.92,15.62-17.99,22.66-27.56,8.31-11.3,15.99-23.08,23.54-34.9,4.39-6.87,8.64-13.97,11.78-21.46,4.38-10.44,8.35-21.16,11.2-32.1,2.06-7.94,1.82-16.27-1.19-24.45-3-8.15-6.49-15.6-12.36-22.29-11.11-12.67-24.66-20.96-40.86-24.6-11.87-2.67-23.97-2.61-35.21,3.03-13.81,6.93-24.46,17.71-33.47,29.94-5.56,7.55-9.8,16.08-14.53,24ZM19.39,526.8c.53-.67,1.21-1.18,1.41-1.83,2.6-8.78,7.06-16.49,13.53-22.94,9.49-9.47,15.02-22.16,25.9-30.66,6.07-4.75,10.61-11.44,15.98-17.11,3.85-4.07,7.86-8,11.95-11.83,3.27-3.05,7.16-5.51,10.06-8.85,3.38-3.89,8.19-7.26,7.35-13.56,3.08,1.16,12.02-1.36,13.71-3.99,1.76-2.73-.31-4.91-1.77-6.81-1.42-1.85-2.46-.85-3.07,1.08-.11.34-1.55.26-2.91.45,1.07-1.43,1.82-2.42,2.73-3.63-1.03-1.2-1.84-3.08-2.99-3.32-3.09-.64-6.44-1.19-9.48-.64-5.11.93-9.98,3.1-15.08,4.13-14.88,3.03-29.78,6.05-44.77,8.44-5.78.92-11.82.15-18.96.15,3.72-4.99,6.9-9.22,10.04-13.49,9.92-13.49,22.57-23.75,37.32-31.5,10.71-5.63,21.39-10.93,33.94-11.85,8.85-.65,15.6-5.69,16.55-14.02.28-2.5.04-5.06.04-7.13,2.66-.57,5-1.07,7.35-1.57.01-.45.02-.89.03-1.34-2.88-1.96-5.94-3.71-8.62-5.92-6.5-5.35-13.56-6.91-21.57-4.03-2.66.95-5.49,1.45-8.11,2.48-17.7,6.97-34.33,16.14-48.71,28.43-9.24,7.9-17.03,17.69-24.49,27.39-5.66,7.36-9.5,16.12-9.93,25.68-.15,3.43,1.39,6.93,2.08,10.42,1.74,8.76,9.02,14.85,18.01,14.81,4.19-.02,8.37-.35,13.11-.56-1.07,1.5-1.79,2.69-2.69,3.73-4.26,4.93-8.6,9.8-12.83,14.76-.5.59-.51,1.6-1,3.27,7.64-5.09,14.12-9.41,20.61-13.74.25.35.5.71.76,1.06-.95.86-2.06,1.59-2.83,2.59-7.74,10-16,19.66-22.93,30.19-5.23,7.94-9.29,16.79-12.85,25.64-2.58,6.41-3.59,13.47-5.04,20.3-.4,1.87-.24,4.05.32,5.88.58,1.87,2,3.47,2.99,5.23.88,1.57,1.36,3.5,2.56,4.73,4.69,4.8,8.4,10.71,14.97,13.47.96.4,1.64,1.57,2.37,2.45,4.94,5.91,11.7,7.17,18.83,7.11,1.35-.01,2.71-2.16,4.04-2.13,6.24.15,11.42-2.45,16.73-5.24,17.06-8.97,32.19-20.6,46.65-33.2,5.03-4.38,10.1-8.72,15.15-13.07,3.66-3.16,8.07-5.77,10.83-9.57,5.85-8.05,11.13-16.48,18.64-23.19.63-.56.64-1.81.94-2.74-.32-.16-.64-.33-.96-.49-4.14,2.79-8.27,5.58-12.41,8.37-5.62,3.79-11,8.01-16.9,11.29-17.74,9.84-35.49,19.71-53.64,28.76-8.57,4.27-17.88,7.38-27.17,9.78-8.43,2.19-17.45,4.69-25.75-2.13ZM159.96,492.65c.43,2.97.53,5.85,1.29,8.55,1.97,6.99,4.06,13.95,6.46,20.79.8,2.28,2.27,4.73,4.15,6.15,7.97,6.01,16.08,11.87,24.4,17.38,12.62,8.37,24.95,5.5,36.56-2.21,4.76-3.16,8.49-7.82,13.09-11.27,7.94-5.95,13.09-13.96,17.16-22.65,2.83-6.04,4.93-12.46,6.89-18.86,1.47-4.81,3.19-9.87,3.02-14.77-.27-7.96-1.58-15.95-3.21-23.77-2.73-13.09-5.99-26.08-9.18-39.08-.95-3.89-2.88-7.58-3.52-11.49-1.86-11.27-3.21-22.61-4.97-33.89-.23-1.49-1.67-2.8-2.55-4.19-1.24,1.1-3.16,1.97-3.6,3.33-4.26,13-8.79,25.95-12.15,39.18-1.75,6.89-2.21,14.14-.83,21.59,1.02,5.48-.34,11.5-1.2,17.19-1.93,12.78-4.17,25.52-6.38,38.26-.3,1.75-.89,3.55-1.78,5.07-4.77,8.21-10.21,15.91-18.29,21.24-1.37.9-3.4,1.67-4.8,1.3-.85-.22-1.55-2.76-1.54-4.26.04-9.7.25-19.41.49-29.11.33-13.19,2.22-26.13,6.44-38.69.6-1.77.88-3.87.57-5.69-1.33-7.8,2.99-14.23,4.92-21.22,1.36-4.92,2.64-9.83.4-14.65-1.98-4.25-4.79-8.1-6.78-12.34-.88-1.88-1.09-4.34-.81-6.43.4-2.9-1.89-6.72-4.25-5.54-5.15,2.57-11.76,5.2-14.15,9.72-5.1,9.62-8.64,20.27-11.45,30.86-4.55,17.15-8.4,34.52-11.76,51.94-1.74,9.04-1.81,18.4-2.62,27.53ZM430.71,407.13c-2.39,4.02-4.7,7.1-6.17,10.53-4.36,10.22-9.19,20.34-12.31,30.95-2.85,9.66-4.7,19.86-5.22,29.91-.84,16.26-.52,32.49,8.34,47.37,5.17,8.69,11.73,15.84,19.25,22.32.63.54,1.83,1.15,2.4.9,4.4-1.93,8.17.28,12.19,1.38,2.42.66,5.16,1.01,7.61.61,11.41-1.85,21.57-6.98,30.7-13.74,11.37-8.42,21.36-18.38,29.22-30.29,1.49-2.25,2.88-4.58,4.56-6.69,5.54-6.96,9.9-14.61,9.81-23.62-.07-6.67-1.3-13.43-2.9-19.94-1.28-5.17-2.9-10.81-6.13-14.83-6.78-8.44-14.64-16.02-22.2-23.81-3.89-4.01-7.92-7.8-13.39-9.93-8.86-3.44-17.48-7.38-24.1-14.69-2.79-3.08-3.42-5.46-1.1-8.73,1.23-1.74,2.49-3.46,3.61-5.27,3.07-4.97,6.08-9.97,9.32-15.32-2.23-3.25-5.03-1.07-7.57.26-6.56,3.42-11.33,8.77-15.36,14.83-2.77,4.17-5.72,7.48-11.62,5.84-8.8-2.45-15.5,1.04-20.63,8.2-2.63,3.66-1.36,8.34,2.71,9.97,2.83,1.13,5.63,2.36,9,3.79ZM1071.95,407.19c-.97,1.27-1.9,2.12-2.4,3.18-4.13,8.76-8.69,17.37-12.14,26.39-6.71,17.52-9.55,35.77-8.76,54.59.59,14.05,2.95,27.37,11.59,39.14,4.61,6.28,9.75,11.84,15.79,16.64.73.58,2.02,1.28,2.66,1.01,4.04-1.68,7.49-.15,11.2,1.26,6.8,2.59,13.25-.04,19.5-2.35,14.31-5.27,25.74-14.9,36.23-25.55,5.18-5.26,9.41-11.47,13.87-17.39,2.09-2.77,3.47-6.08,5.6-8.81,5.49-6.99,8.05-14.83,7.23-23.64-.29-3.09-2.05-6.11-2.05-9.16,0-10.48-5.7-18.36-11.24-26.37-1.31-1.9-2.73-3.78-4.38-5.38-5.8-5.6-11.65-11.14-17.63-16.55-2.02-1.83-4.28-3.65-6.76-4.7-8.9-3.76-17.48-8.03-25.1-14.04-3.93-3.11-4.75-6.35-2.2-10.8,3.48-6.09,7.37-11.94,10.97-17.97.54-.91.41-2.21.59-3.33-1.16-.07-2.52-.56-3.44-.12-2.98,1.42-6.32,2.66-8.57,4.91-4.66,4.67-8.8,9.87-12.96,15.02-1.24,1.54-2.12,2.5-4.37,2.08-3.27-.62-6.71-1.14-9.98-.79-3.04.32-6.24,1.37-8.85,2.95-2.34,1.42-4.07,3.92-5.9,6.09-2.56,3.03-1.07,8,2.58,9.5,2.94,1.2,5.76,2.68,8.91,4.17ZM1236.97,381.79c-2.2,0-4.4.11-6.59-.02-10.15-.59-17.23,3.33-20.62,13.33-3.9,11.51-10.3,22.11-11.4,34.66-1.8,20.58-4.4,41.08-6.22,61.66-.82,9.33-.7,18.76-.75,28.15-.02,3.71,1.25,7.49.85,11.12-.72,6.57,2.52,11.33,6.27,15.8,3.03,3.61,7.32,4.43,11.92,3.11,4.18-1.2,5.85-4.23,6.05-8.29.33-6.73.61-13.46.94-20.19.04-.88.16-1.76.34-2.63,2.92-14.01,5.96-27.99,8.76-42.02,3-15.01,5.83-30.05,8.61-45.1.73-3.96.64-8.08,1.57-11.97.78-3.27,2.44-6.34,3.82-9.45.53-1.18,1.36-2.22,2.06-3.33,1.31.89,3.23,1.49,3.82,2.72,2.38,4.9,4.97,9.84,6.31,15.06,2.31,8.96,3.82,18.14,5.53,27.25.9,4.79,2.6,9.79,1.91,14.39-.58,3.87,1.85,7.01.82,10.83-.51,1.89,1.55,4.36,2.01,6.66,3.57,18.03,7.54,35.7,20.48,50.08,7,7.78,14.77,14.13,24.11,18.57,5.92,2.81,12.21,3.26,18.39.76,1.25-.51,2.58-2.13,2.8-3.42.13-.78-1.68-2.12-2.85-2.82-1.18-.71-2.65-.96-4-1.4-17.37-5.79-27.12-18.33-30.37-35.8-1.49-8.03-1.09-16.4-1.67-24.61-.4-5.76-1.1-11.5-1.5-17.27-.43-6.11-.33-12.27-1.09-18.33-.68-5.36-2.62-10.56-3.34-15.92-2.52-18.85-10.67-34.51-25.41-46.65-3.81-3.13-7.91-5.22-13.02-4.93-2.84.16-5.69.03-8.53.03ZM309.42,385.62c-.36.17-.73.33-1.09.5,2.58,2.12,3.01,4.73,1.9,7.69-1.5,4.01-3.41,7.93-4.38,12.07-1.44,6.14-3.26,11.42-10.44,12.99-2.9.63-3.03,2.22-.85,4.83,2.22,2.65,5.66,4.93,4.85,9.52-2.32,13.11-4.9,26.22-6.38,39.43-2.17,19.39-3.55,38.86-5.01,58.32-.18,2.42,1.2,4.95,1.86,7.43,4.08-1.13,5.18-3.39,6-6.47,3.8-14.18,5.76-28.82,12.77-42.16,4.75-9.04,7.74-19.01,11.75-29.16,1.15,1.68,2.21,2.82,2.8,4.17,2.69,6.19,5.35,12.4,7.82,18.68,4.59,11.65,8.91,23.41,13.6,35.02,3.74,9.25,9.29,17.38,16.44,24.36,1,.97,2.13,2.02,3.39,2.48,6.04,2.19,12.08,4.4,18.25,6.19,4.54,1.32,8.71-.19,12.09-3.38.94-.89,1.23-2.47,1.82-3.73-1.42-.4-2.84-1.18-4.25-1.15-8.09.18-15.98-.74-21.44-7.33-2.74-3.31-4.72-7.63-5.85-11.82-2.1-7.78-3.78-15.73-4.82-23.72-1.51-11.52-2.95-23.19-6.18-34.2-2.85-9.75-6-20.21-15.59-26.97,1.69-1.11,2.77-2.02,4-2.59,4.79-2.19,10-3.7,14.38-6.51,12.12-7.76,22.4-17.53,29.86-30.01.86-1.43,1.31-3.18,2.39-4.41,5.54-6.3,5.63-15.23-2.04-21.61-12.21-10.15-25.58-13.99-41-10.07-6.84,1.74-13.61,3.79-20.56,5.74-1.11-1.21-2.38-2.59-4-4.36-2.51,6.33-6.64,10.69-11.57,14.39-.52.39-.69,1.46-.73,2.24-.06,1.2.14,2.41.22,3.62ZM851.08,548.22c1.19-1.09,2.23-1.84,3.02-2.79,3.8-4.58,6.81-9.86,12.26-12.94,2.09-1.18,4.1-2.69,5.73-4.44,8.88-9.53,20.43-15.48,30.72-23.11,4.21-3.12,8.88-5.62,13.02-8.8,7.19-5.52,14.12-11.38,21.21-17.04,1.27-1.01,2.78-1.71,4.09-2.68,2.12-1.55,4.92-2.79,6.08-4.9,2.73-4.95,5.12-10.19,6.82-15.58,2.14-6.81-.31-10.95-7.18-12.86-3.03-.84-6.38-1.34-9.48-.99-12.01,1.33-24.01,2.84-35.93,4.77-4.47.73-7.43-1.12-10.36-3.68-.55-.48-.88-2.01-.53-2.61,3.2-5.51,6.51-10.97,9.95-16.34.71-1.11,2.05-1.84,3.17-2.64,7.41-5.33,15.73-8.53,24.46-11.06,6.39-1.85,8.07-6.64,6.11-13.03-1.36-4.42-3.8-7.4-8.08-9.03-4.44-1.69-8.78-3.65-13.27-5.21-6.06-2.11-6.1-1.99-10.15,3.04-.13.16-.44.17-.98.35-1.25-1.2-2.62-2.5-3.68-3.51-2.1,2.01-4.19,3.85-6.09,5.86-5.3,5.64-11.21,10.87-15.6,17.15-5.47,7.82-6.53,17.21-6.13,26.69.34,7.95,3.78,15.22,8.45,20.8,5.13,6.13,13.07,9.62,21.61,9.57,5.08-.03,10.15-.85,15.72-1.35-5.44,4.48-10.79,8.78-16.04,13.22-6.47,5.47-12.78,11.13-19.27,16.57-8.18,6.87-15.48,14.44-21.46,23.39-5.78,8.65-10.66,17.53-10.96,28.17-.08,2.99-.99,6.59,3.21,8.52-.16-1.27-.33-2.53-.45-3.5ZM978.78,550.15c1.32-5.41-.23-12.04,6.24-15.2.14-.07.11-.48.18-.73,1.29-4.63,3.03-9.18,3.79-13.89,3.03-18.89,9.69-36.58,17.19-54.04,2.4-5.59,5.4-11.39,5.79-17.25.47-7.03,3.16-12.8,5.96-18.83,4.05-8.76,8.86-17.31,9.35-27.25.18-3.72-.6-7.48-.39-11.2.18-3.13-1.32-5.58-3.66-6.09-5.01-1.09-7.49-4.09-8.71-8.93-2.57.52-5.37.35-7.21,1.6-3.67,2.48-7.31,1.55-11.08,1.18-3.2-.31-6.41-.7-9.61-.66-1.27.01-3.62,1.12-3.6,1.65.07,1.6.66,4.11,1.76,4.58,4.73,2.01,2.67,5.04,1.74,8.01-.19.6-.39,1.2-.56,1.81-3.94,14.56-8.29,29.02-11.72,43.7-4.27,18.29-8.38,36.67-11.39,55.2-1.63,10.05-1.35,20.53-.92,30.77.26,6.07,2.05,12.21,3.96,18.05,1.98,6.07,5.84,8.02,12.88,7.53ZM839.43,376.18c-2,.3-3.94.06-5.23.87-5.24,3.3-10.77,2.22-16.32,1.67-1.92-.19-3.91-.65-5.74-.32-1.66.3-3.16,1.52-4.73,2.33.81,1.31,1.33,3.22,2.5,3.82,2.71,1.38,2.85,3.48,2.34,5.8-2.03,9.32-4.02,18.65-6.35,27.89-3.53,14.01-8.08,27.82-10.82,41.98-2.77,14.32-4.04,28.94-5.61,43.47-1.28,11.84-.33,23.63,2.27,35.27,1.02,4.6,3.42,8.36,7.77,10.3,1.83.82,5.29,1.44,6.01.54,1.3-1.62,1.05-4.46,1.55-6.77.27-1.24.37-2.99,1.19-3.55,4.02-2.71,5.82-6.45,6.3-11.14.29-2.81,1-5.57,1.49-8.36,1.01-5.68,1.55-11.49,3.11-17.02,2.42-8.58,5.49-16.98,8.35-25.43.9-2.66,1.58-5.55,3.14-7.79,4.61-6.62,6.96-14.14,7.42-21.85.34-5.74,1.54-10.82,4.16-15.74,1-1.87,2.4-3.57,3.14-5.53,4.27-11.25,8.9-22.26,6.32-35.02-.86-4.22-1.83-6.6-5.73-7.61-3.85-1-5.73-3.67-6.55-7.83ZM995.47,327.75c-1.52-.61-2.01-.72-2.39-.98-1.89-1.27-3.76-2.58-5.63-3.87-.62,2.28-1.67,4.53-1.78,6.84-.48,10.26-1.1,20.55-.86,30.8.16,7.02,4.59,9.83,11.35,8.47.88-.18,1.82-.12,2.67-.39,5.85-1.82,12.35-2.65,17.38-5.8,7.21-4.53,9.24-9.37,6.87-16.44-1.37-4.09-2.94-8.13-4.79-12.02-.85-1.78-2.29-3.68-3.97-4.6-6.86-3.8-13.92-7.25-20.9-10.83-.21.28-.42.55-.62.83.8,2.38,1.6,4.76,2.69,7.99Z"/>
        <path class="cls-1"
              d="M658.55,362.56c4.73-7.92,8.97-16.44,14.53-24,9-12.23,19.66-23.02,33.47-29.94,11.24-5.64,23.34-5.7,35.21-3.03,16.2,3.64,29.75,11.92,40.86,24.6,5.87,6.69,9.36,14.14,12.36,22.29,3.01,8.18,3.25,16.51,1.19,24.45-2.84,10.94-6.81,21.66-11.2,32.1-3.14,7.49-7.39,14.59-11.78,21.46-7.55,11.83-15.23,23.6-23.54,34.9-7.03,9.57-14.8,18.63-22.66,27.56-8.29,9.41-16.86,18.59-25.7,27.47-5.59,5.62-11.69,10.77-17.93,15.67-8.93,7.01-19.07,10.08-30.43,7.41-2.16-.51-4.14-1.79-6.13-2.68.13,3.45-2.6,5.34-5.54,6.11-7.65,2-15.15,2.61-21.74-3.5-8.06-7.48-16.77-14.29-24.62-21.97-8.4-8.23-16.16-17.1-24.12-25.77-9.46-10.31-17.93-21.38-24.31-33.88-4.29-8.4-8.1-17.03-12.22-25.52-5.81-11.97-6.96-24.84-7-37.81-.03-10.07,1.24-20.15,5-29.56,4.92-12.3,11.32-23.9,21.57-32.62,16.32-13.89,34.86-20.82,56.47-15.6,9.95,2.4,18.24,7.99,25.83,14.8,8.99,8.07,16.06,17.66,22.44,27.08ZM734.64,446.65c1.16-1.29,2.54-2.45,3.46-3.89,3.85-6.03,7.93-11.95,11.24-18.28,6.74-12.91,14.79-25.24,18.47-39.57,4.61-18.01,3.3-34.74-9.79-49.42-5.77-6.47-12.32-11.77-19.97-15.46-4.84-2.34-10.25-5.5-15.84-1.17-3.86,2.99-7.87,5.82-11.45,9.1-9.82,8.99-17.54,19.79-23.28,31.61-7.42,15.28-11.39,31.79-13.5,48.65-.47,3.78-2.04,6-5.46,7.05-5.67,1.74-11.41,1.59-17.05-.09-2.71-.8-3.92-2.85-4.29-5.79-1.24-9.85-2.91-19.53-7.48-28.64-3.96-7.89-7.51-15.85-12.87-23.04-5.75-7.72-12.1-14.9-19.78-20.36-9.44-6.72-10.64-7.85-21.23-1.76-7.46,4.29-13.62,10.31-18.11,17.33-4.69,7.33-8.35,15.56-11.06,23.86-2.15,6.6-2.68,13.87-3.04,20.89-.62,12.29,1.74,24.22,6.56,35.54,3.09,7.25,6.4,14.44,9.99,21.45,6.93,13.53,16.08,25.56,26.11,36.89,7.28,8.22,14.63,16.41,22.49,24.06,8.69,8.47,18,16.3,27.38,24.72,1.09-4.95,2.73-7.28,6.4-7.52,6.22-.41,10.63-4.16,14.52-7.97,11-10.74,21.44-22.05,32.11-33.13,1.36-1.32,2.83-2.54,4.05-3.98,2.82-3.34,5.41-6.87,8.28-10.16,8.48-9.73,16.73-19.63,23.14-30.91Z"/>
        <path class="cls-1"
              d="M19.39,526.8c8.3,6.82,17.32,4.32,25.75,2.13,9.29-2.41,18.6-5.51,27.17-9.78,18.15-9.05,35.9-18.92,53.64-28.76,5.9-3.27,11.28-7.5,16.9-11.29,4.14-2.79,8.27-5.58,12.41-8.37.32.16.64.33.96.49-.3.93-.31,2.18-.94,2.74-7.51,6.71-12.8,15.14-18.64,23.19-2.76,3.81-7.17,6.42-10.83,9.57-5.05,4.35-10.12,8.69-15.15,13.07-14.46,12.6-29.59,24.23-46.65,33.2-5.31,2.79-10.49,5.39-16.73,5.24-1.33-.03-2.69,2.12-4.04,2.13-7.13.06-13.89-1.19-18.83-7.11-.73-.88-1.4-2.04-2.37-2.45-6.57-2.76-10.28-8.67-14.97-13.47-1.2-1.23-1.68-3.16-2.56-4.73-.99-1.76-2.41-3.36-2.99-5.23-.56-1.83-.72-4.01-.32-5.88,1.45-6.83,2.47-13.89,5.04-20.3,3.56-8.86,7.62-17.7,12.85-25.64,6.94-10.53,15.19-20.19,22.93-30.19.77-1,1.88-1.73,2.83-2.59-.25-.35-.5-.71-.76-1.06-6.49,4.32-12.97,8.65-20.61,13.74.49-1.67.5-2.68,1-3.27,4.23-4.96,8.57-9.83,12.83-14.76.9-1.04,1.62-2.23,2.69-3.73-4.73.21-8.92.54-13.11.56-8.99.04-16.27-6.05-18.01-14.81-.69-3.48-2.23-6.98-2.08-10.42.42-9.56,4.26-18.32,9.93-25.68,7.46-9.7,15.25-19.49,24.49-27.39,14.39-12.3,31.02-21.46,48.71-28.43,2.62-1.03,5.45-1.53,8.11-2.48,8.01-2.87,15.07-1.31,21.57,4.03,2.68,2.2,5.73,3.96,8.62,5.92-.01.45-.02.89-.03,1.34-2.34.5-4.69,1-7.35,1.57,0,2.07.24,4.63-.04,7.13-.95,8.33-7.7,13.37-16.55,14.02-12.55.93-23.23,6.23-33.94,11.85-14.75,7.75-27.4,18.01-37.32,31.5-3.14,4.27-6.32,8.5-10.04,13.49,7.13,0,13.18.77,18.96-.15,14.99-2.4,29.89-5.42,44.77-8.44,5.1-1.04,9.97-3.2,15.08-4.13,3.04-.56,6.39,0,9.48.64,1.15.24,1.97,2.12,2.99,3.32-.91,1.21-1.65,2.2-2.73,3.63,1.36-.19,2.8-.11,2.91-.45.61-1.93,1.65-2.93,3.07-1.08,1.46,1.9,3.53,4.08,1.77,6.81-1.69,2.63-10.64,5.15-13.71,3.99.84,6.31-3.96,9.67-7.35,13.56-2.9,3.34-6.8,5.8-10.06,8.85-4.09,3.83-8.1,7.76-11.95,11.83-5.37,5.68-9.91,12.37-15.98,17.11-10.87,8.5-16.4,21.18-25.9,30.66-6.46,6.45-10.93,14.16-13.53,22.94-.19.65-.87,1.15-1.41,1.83ZM44.82,441.58c.19.24.39.48.58.71.57-.52,1.15-1.05,1.72-1.57-.13-.17-.26-.33-.4-.5l-1.91,1.36Z"/>
        <path class="cls-16"
              d="M159.96,492.65c.82-9.12.88-18.49,2.62-27.53,3.36-17.43,7.21-34.79,11.76-51.94,2.81-10.59,6.35-21.24,11.45-30.86,2.39-4.52,9-7.15,14.15-9.72,2.36-1.18,4.65,2.64,4.25,5.54-.29,2.09-.07,4.55.81,6.43,1.99,4.24,4.81,8.09,6.78,12.34,2.24,4.82.96,9.73-.4,14.65-1.93,6.99-6.25,13.42-4.92,21.22.31,1.82.03,3.92-.57,5.69-4.22,12.56-6.11,25.5-6.44,38.69-.24,9.7-.45,19.41-.49,29.11,0,1.5.69,4.04,1.54,4.26,1.41.37,3.44-.4,4.8-1.3,8.08-5.33,13.52-13.04,18.29-21.24.89-1.53,1.47-3.33,1.78-5.07,2.21-12.74,4.45-25.48,6.38-38.26.86-5.69,2.22-11.72,1.2-17.19-1.38-7.45-.92-14.71.83-21.59,3.36-13.24,7.89-26.19,12.15-39.18.44-1.36,2.37-2.23,3.6-3.33.88,1.39,2.31,2.7,2.55,4.19,1.76,11.28,3.12,22.63,4.97,33.89.65,3.92,2.57,7.61,3.52,11.49,3.19,13,6.45,25.98,9.18,39.08,1.63,7.82,2.93,15.81,3.21,23.77.17,4.89-1.55,9.96-3.02,14.77-1.96,6.4-4.06,12.82-6.89,18.86-4.07,8.69-9.22,16.7-17.16,22.65-4.6,3.45-8.33,8.11-13.09,11.27-11.61,7.71-23.95,10.57-36.56,2.21-8.32-5.52-16.42-11.38-24.4-17.38-1.88-1.42-3.35-3.87-4.15-6.15-2.4-6.85-4.49-13.81-6.46-20.79-.76-2.7-.86-5.58-1.29-8.55Z"/>
        <path class="cls-1"
              d="M430.71,407.13c-3.37-1.42-6.16-2.65-9-3.79-4.07-1.63-5.34-6.31-2.71-9.97,5.13-7.16,11.83-10.65,20.63-8.2,5.9,1.64,8.84-1.67,11.62-5.84,4.03-6.07,8.8-11.42,15.36-14.83,2.54-1.32,5.34-3.51,7.57-.26-3.25,5.35-6.25,10.36-9.32,15.32-1.12,1.81-2.38,3.53-3.61,5.27-2.32,3.26-1.69,5.64,1.1,8.73,6.62,7.31,15.24,11.25,24.1,14.69,5.48,2.12,9.5,5.91,13.39,9.93,7.56,7.79,15.42,15.37,22.2,23.81,3.23,4.02,4.85,9.66,6.13,14.83,1.6,6.5,2.83,13.27,2.9,19.94.09,9.01-4.27,16.66-9.81,23.62-1.68,2.11-3.07,4.44-4.56,6.69-7.86,11.91-17.85,21.87-29.22,30.29-9.13,6.76-19.29,11.89-30.7,13.74-2.45.4-5.19.05-7.61-.61-4.02-1.1-7.79-3.31-12.19-1.38-.57.25-1.77-.36-2.4-.9-7.52-6.48-14.08-13.63-19.25-22.32-8.86-14.88-9.18-31.11-8.34-47.37.52-10.05,2.37-20.25,5.22-29.91,3.13-10.61,7.95-20.73,12.31-30.95,1.47-3.44,3.78-6.51,6.17-10.53ZM460.14,418.44c-2.08,13.05-5.37,24.73-11.81,35.22-3.58,5.83-3.19,12.22-4.07,18.52-1.04,7.45-2.87,14.79-4.34,22.19-.22,1.11-.41,2.24-.43,3.37-.09,6.15,5.11,12.01,1.06,18.41-.08.13.24.46.26.7.36,4.43,3.71,3.6,6.34,3.35,23.92-2.27,41.69-15.43,56.81-32.84,2.81-3.23,4.11-7.55,2.92-12.29-2.93-11.74-7.56-22.63-15.75-31.66-4.11-4.53-8.64-8.69-13.13-12.86-3.73-3.48-7.53-6.92-11.59-10-1.58-1.2-3.96-1.36-6.29-2.1Z"/>
        <path class="cls-1"
              d="M1071.95,407.19c-3.15-1.49-5.98-2.96-8.91-4.17-3.65-1.49-5.14-6.47-2.58-9.5,1.83-2.17,3.56-4.67,5.9-6.09,2.61-1.58,5.81-2.63,8.85-2.95,3.27-.34,6.7.18,9.98.79,2.25.42,3.12-.54,4.37-2.08,4.16-5.15,8.3-10.35,12.96-15.02,2.25-2.26,5.59-3.5,8.57-4.91.92-.44,2.28.06,3.44.12-.18,1.12-.05,2.42-.59,3.33-3.59,6.03-7.48,11.88-10.97,17.97-2.55,4.45-1.73,7.69,2.2,10.8,7.62,6.01,16.2,10.28,25.1,14.04,2.48,1.05,4.73,2.87,6.76,4.7,5.98,5.41,11.83,10.95,17.63,16.55,1.65,1.6,3.07,3.48,4.38,5.38,5.54,8.01,11.23,15.89,11.24,26.37,0,3.05,1.76,6.06,2.05,9.16.82,8.8-1.74,16.64-7.23,23.64-2.14,2.72-3.52,6.04-5.6,8.81-4.47,5.92-8.7,12.13-13.87,17.39-10.49,10.66-21.92,20.28-36.23,25.55-6.25,2.3-12.7,4.94-19.5,2.35-3.71-1.41-7.16-2.94-11.2-1.26-.65.27-1.93-.43-2.66-1.01-6.04-4.81-11.18-10.36-15.79-16.64-8.64-11.77-11-25.09-11.59-39.14-.8-18.82,2.05-37.07,8.76-54.59,3.46-9.02,8.01-17.63,12.14-26.39.5-1.06,1.43-1.92,2.4-3.18ZM1081.23,515.29c3.25,4.51,3.24,4.46,8.33,4.03,16.43-1.41,30-9.15,42.4-19.33,3.95-3.24,7.76-6.72,11.19-10.49,3.89-4.28,6.6-9.2,4.9-15.42-3.69-13.53-9.49-25.78-20.19-35.36-5.8-5.2-11.03-11.05-16.88-16.2-2.43-2.13-5.81-3.18-9.24-4.98-.41,2.44-.52,3.71-.85,4.91-1.88,6.69-2.98,13.76-5.92,19.95-4.61,9.72-9.51,18.98-9.23,30.3.15,5.91-.55,12.53-3.2,17.63-2.9,5.59-2.17,9.97.05,14.86,1.98,4.36,1.74,7.14-1.36,10.09Z"/>
        <path class="cls-1"
              d="M1236.97,381.79c2.85,0,5.7.13,8.53-.03,5.11-.29,9.21,1.79,13.02,4.93,14.75,12.14,22.89,27.8,25.41,46.65.72,5.36,2.66,10.56,3.34,15.92.77,6.06.66,12.22,1.09,18.33.4,5.76,1.1,11.5,1.5,17.27.58,8.21.17,16.58,1.67,24.61,3.25,17.47,13.01,30.01,30.37,35.8,1.34.45,2.81.69,4,1.4,1.17.7,2.98,2.04,2.85,2.82-.22,1.29-1.54,2.91-2.8,3.42-6.18,2.5-12.47,2.05-18.39-.76-9.34-4.44-17.11-10.78-24.11-18.57-12.94-14.38-16.91-32.05-20.48-50.08-.46-2.3-2.52-4.77-2.01-6.66,1.03-3.82-1.39-6.96-.82-10.83.69-4.6-1.02-9.61-1.91-14.39-1.71-9.11-3.22-18.29-5.53-27.25-1.35-5.22-3.94-10.16-6.31-15.06-.6-1.24-2.51-1.83-3.82-2.72-.7,1.11-1.53,2.15-2.06,3.33-1.38,3.11-3.04,6.18-3.82,9.45-.93,3.89-.84,8.02-1.57,11.97-2.78,15.05-5.61,30.1-8.61,45.1-2.8,14.03-5.84,28.01-8.76,42.02-.18.86-.3,1.75-.34,2.63-.33,6.73-.61,13.46-.94,20.19-.2,4.07-1.87,7.09-6.05,8.29-4.6,1.32-8.89.51-11.92-3.11-3.75-4.47-6.99-9.24-6.27-15.8.4-3.63-.87-7.41-.85-11.12.05-9.39-.07-18.81.75-28.15,1.82-20.58,4.42-41.08,6.22-61.66,1.1-12.55,7.5-23.14,11.4-34.66,3.39-10,10.47-13.92,20.62-13.33,2.19.13,4.4.02,6.59.02Z"/>
        <path class="cls-1"
              d="M309.42,385.62c-.09-1.21-.28-2.42-.22-3.62.04-.77.21-1.84.73-2.24,4.94-3.7,9.06-8.06,11.57-14.39,1.63,1.77,2.9,3.15,4,4.36,6.95-1.95,13.72-4,20.56-5.74,15.42-3.92,28.79-.08,41,10.07,7.68,6.38,7.59,15.31,2.04,21.61-1.07,1.22-1.53,2.97-2.39,4.41-7.47,12.47-17.74,22.25-29.86,30.01-4.38,2.81-9.59,4.31-14.38,6.51-1.24.57-2.31,1.48-4,2.59,9.59,6.76,12.74,17.22,15.59,26.97,3.23,11.02,4.67,22.68,6.18,34.2,1.05,7.99,2.72,15.94,4.82,23.72,1.13,4.19,3.11,8.51,5.85,11.82,5.46,6.6,13.35,7.51,21.44,7.33,1.41-.03,2.83.75,4.25,1.15-.59,1.26-.88,2.85-1.82,3.73-3.39,3.18-7.55,4.7-12.09,3.38-6.16-1.79-12.21-4-18.25-6.19-1.27-.46-2.4-1.5-3.39-2.48-7.15-6.99-12.7-15.12-16.44-24.36-4.69-11.61-9.01-23.37-13.6-35.02-2.47-6.28-5.13-12.49-7.82-18.68-.59-1.35-1.65-2.49-2.8-4.17-4.01,10.15-7,20.12-11.75,29.16-7.01,13.34-8.97,27.99-12.77,42.16-.83,3.08-1.93,5.34-6,6.47-.66-2.48-2.04-5.02-1.86-7.43,1.46-19.46,2.85-38.93,5.01-58.32,1.48-13.22,4.06-26.32,6.38-39.43.81-4.59-2.63-6.87-4.85-9.52-2.18-2.61-2.06-4.19.85-4.83,7.18-1.57,9-6.85,10.44-12.99.97-4.14,2.88-8.06,4.38-12.07,1.11-2.97.68-5.57-1.9-7.69.36-.17.73-.33,1.09-.5ZM326.08,424.58c26.23-14.07,42.74-29.55,43.08-40.47-.52.08-1,.12-1.48.22-10.89,2.29-21.4,6.21-32.98,5.11-5.73-.55-6.43,1.39-5.54,7.37.11.75-.04,1.54-.13,2.3-.97,8.39-1.94,16.78-2.95,25.48Z"/>
        <path class="cls-29"
              d="M851.08,548.22c.12.96.29,2.23.45,3.5-4.2-1.93-3.29-5.54-3.21-8.52.3-10.64,5.18-19.52,10.96-28.17,5.98-8.95,13.27-16.52,21.46-23.39,6.49-5.45,12.81-11.1,19.27-16.57,5.24-4.44,10.6-8.74,16.04-13.22-5.57.51-10.64,1.33-15.72,1.35-8.54.04-16.49-3.45-21.61-9.57-4.67-5.58-8.11-12.84-8.45-20.8-.4-9.48.66-18.87,6.13-26.69,4.39-6.28,10.3-11.52,15.6-17.15,1.9-2.02,3.99-3.86,6.09-5.86,1.06,1.01,2.42,2.32,3.68,3.51.54-.19.85-.19.98-.35,4.06-5.03,4.09-5.15,10.15-3.04,4.48,1.56,8.83,3.52,13.27,5.21,4.28,1.63,6.72,4.61,8.08,9.03,1.96,6.39.28,11.18-6.11,13.03-8.73,2.53-17.05,5.72-24.46,11.06-1.12.81-2.46,1.54-3.17,2.64-3.44,5.37-6.75,10.83-9.95,16.34-.35.6-.02,2.13.53,2.61,2.93,2.56,5.89,4.4,10.36,3.68,11.92-1.94,23.92-3.44,35.93-4.77,3.1-.34,6.45.15,9.48.99,6.87,1.91,9.32,6.05,7.18,12.86-1.7,5.39-4.08,10.63-6.82,15.58-1.17,2.11-3.97,3.35-6.08,4.9-1.31.96-2.82,1.66-4.09,2.68-7.08,5.67-14.02,11.52-21.21,17.04-4.15,3.19-8.82,5.69-13.02,8.8-10.29,7.63-21.84,13.59-30.72,23.11-1.63,1.75-3.65,3.26-5.73,4.44-5.44,3.08-8.46,8.36-12.26,12.94-.79.95-1.83,1.7-3.02,2.79Z"/>
        <path class="cls-1"
              d="M978.78,550.15c-7.04.49-10.91-1.46-12.88-7.53-1.9-5.85-3.7-11.98-3.96-18.05-.43-10.24-.71-20.71.92-30.77,3-18.53,7.11-36.9,11.39-55.2,3.43-14.68,7.77-29.14,11.72-43.7.17-.61.37-1.21.56-1.81.93-2.97,2.99-6-1.74-8.01-1.1-.47-1.69-2.98-1.76-4.58-.02-.53,2.32-1.63,3.6-1.65,3.2-.03,6.41.35,9.61.66,3.77.37,7.41,1.3,11.08-1.18,1.85-1.24,4.64-1.08,7.21-1.6,1.23,4.84,3.71,7.84,8.71,8.93,2.34.51,3.83,2.96,3.66,6.09-.21,3.71.57,7.48.39,11.2-.49,9.95-5.3,18.5-9.35,27.25-2.79,6.03-5.49,11.79-5.96,18.83-.39,5.86-3.39,11.66-5.79,17.25-7.5,17.46-14.16,35.14-17.19,54.04-.76,4.71-2.5,9.27-3.79,13.89-.07.25-.04.66-.18.73-6.48,3.15-4.92,9.78-6.24,15.2Z"/>
        <path class="cls-1"
              d="M839.43,376.18c.82,4.17,2.69,6.83,6.55,7.83,3.9,1.01,4.87,3.39,5.73,7.61,2.59,12.76-2.05,23.77-6.32,35.02-.74,1.96-2.15,3.65-3.14,5.53-2.62,4.92-3.82,10.01-4.16,15.74-.46,7.71-2.82,15.23-7.42,21.85-1.56,2.24-2.24,5.13-3.14,7.79-2.86,8.45-5.93,16.85-8.35,25.43-1.56,5.53-2.1,11.34-3.11,17.02-.5,2.79-1.2,5.55-1.49,8.36-.48,4.68-2.27,8.42-6.3,11.14-.83.56-.93,2.31-1.19,3.55-.5,2.31-.25,5.15-1.55,6.77-.72.9-4.18.27-6.01-.54-4.35-1.94-6.74-5.71-7.77-10.3-2.59-11.63-3.54-23.42-2.27-35.27,1.57-14.53,2.84-29.15,5.61-43.47,2.74-14.16,7.29-27.96,10.82-41.98,2.33-9.24,4.32-18.58,6.35-27.89.5-2.31.37-4.42-2.34-5.8-1.18-.6-1.69-2.51-2.5-3.82,1.57-.81,3.06-2.03,4.73-2.33,1.84-.33,3.83.13,5.74.32,5.55.55,11.08,1.63,16.32-1.67,1.29-.81,3.23-.58,5.23-.87Z"/>
        <path class="cls-29"
              d="M995.47,327.75c-1.09-3.23-1.89-5.61-2.69-7.99.21-.28.42-.55.62-.83,6.98,3.58,14.04,7.03,20.9,10.83,1.68.93,3.12,2.82,3.97,4.6,1.85,3.89,3.42,7.93,4.79,12.02,2.37,7.08.35,11.91-6.87,16.44-5.02,3.16-11.52,3.98-17.38,5.8-.85.26-1.79.21-2.67.39-6.76,1.36-11.19-1.45-11.35-8.47-.23-10.26.38-20.54.86-30.8.11-2.3,1.16-4.56,1.78-6.84,1.88,1.29,3.74,2.6,5.63,3.87.38.26.87.36,2.39.98Z"/>
        <path class="cls-12"
              d="M699.17,491.69c-10.66,11.09-21.11,22.4-32.11,33.14-3.9,3.8-8.3,7.56-14.52,7.97-3.67.24-5.31,2.57-6.4,7.52-9.38-8.42-18.69-16.25-27.38-24.72-7.86-7.65-15.21-15.84-22.49-24.06-10.04-11.33-19.18-23.36-26.11-36.89-3.59-7.02-6.9-14.2-9.99-21.45-4.82-11.33-7.19-23.25-6.56-35.54.36-7.02.89-14.29,3.04-20.89,2.7-8.3,6.36-16.53,11.06-23.86,4.49-7.01,10.65-13.04,18.11-17.33,10.59-6.09,11.79-4.96,21.23,1.76,7.67,5.46,14.03,12.65,19.78,20.36,5.36,7.19,8.91,15.15,12.87,23.04,4.57,9.11,6.24,18.79,7.48,28.64.37,2.94,1.58,4.99,4.29,5.79,5.64,1.67,11.37,1.82,17.05.09,3.42-1.05,4.99-3.27,5.46-7.05,2.12-16.86,6.09-33.37,13.5-48.65,5.74-11.82,13.46-22.62,23.28-31.61,3.59-3.29,7.6-6.11,11.45-9.1,5.59-4.33,11-1.16,15.84,1.17,7.65,3.69,14.2,8.99,19.97,15.46,13.1,14.68,14.4,31.41,9.79,49.42-3.67,14.33-11.73,26.66-18.47,39.57-3.3,6.33-7.39,12.25-11.24,18.28-.92,1.44-2.29,2.6-3.46,3.89-6.83,1.29-13.73,2.33-20.49,3.94-8.48,2.02-16.83,4.55-25.26,6.78-6.54,1.73-13.12,3.33-19.17,4.86,2.77,10.74,5.35,20.74,7.93,30.74,0,2.06,0,4.13.01,6.19-3.86-.78-7.73-1.56-11.59-2.34-1.62-.74-3.21-2-4.86-2.1-4.11-.25-4.23-2.56-4.53-5.9-.42-4.63-1.94-9.17-2.99-13.74l.05-.04c-.1-1.42-.19-2.83-.29-4.22-2.18.11-3.79.2-5.39.28,0,0-.23.08-.23.08-.38-.25-.75-.5-1.13-.75,2.01-1.3,3.92-2.79,6.04-3.87,4.75-2.43,5.92-6.05,3.31-10.74-.41-.74-.57-1.61-.85-2.42,5.35-2,8.08-5.06,7.87-9-.5.1-1.01.11-1.45.3-8.57,3.67-11.32,1.23-17.32-4.51-.67-.64-.91-2.14-.76-3.15,1.42-9.37-1.37-17.31-7.75-24.17-.72-.78-1.55-2.09-1.38-2.97,2.1-10.74-9.65-19.99-18.68-20.13-1.52-.02-3.03-.39-4.54-.6-1.39-4.52-2.74-9.05-4.18-13.56-.68-2.14-1.06-5.04-4.2-4.21-.65.17-.93,3.52-.59,5.26.9,4.69,2.22,9.3,3.38,13.95-6.37,2.08-12.14,5.98-19.32,5.67-1.6-.07-3.53,1.76-4.89,3.13-2.05,2.06-3.57,4.64-5.62,6.7-2.37,2.39-2.54,4.31.39,6.21-.47,1.03-.97,2.04-1.39,3.09-.73,1.81-1.41,3.63-2.11,5.45.63.29,1.26.58,1.89.87,1.66-2.86,3.33-5.71,4.99-8.57l.23-.22c.58-.1,1.16-.2,1.75-.3.7.5,1.33,1.27,2.1,1.46,1.4.33,3.96.81,4.16.37,1.71-3.69,5.04-5.07,8.29-6.71.61-.31,1.06-1.12,1.39-1.8,2.27-4.65,6.05-6.75,11.13-6.75.55,2.56,1.1,5.12,1.65,7.69-1.92.7-3.84,1.39-5.75,2.11-6.93,2.6-14.59,12.33-7.79,20.61,3.45,4.19,8.11,3.61,12.67,3.63.39.59.77,1.17,1.16,1.76-1.9,1.7-3.81,3.41-5.71,5.11-2.65,2.36-3.27,8.68-.94,11.26,4.56,5.06,10.17,6.98,16.94,5.51,1.55-.34,3.22-.09,4.84-.11.35,1.88.43,3.86,1.11,5.62,1.17,3.03-.46,3.59-2.83,3.93-3.67.52-7.52.59-10.92,1.87-3.06,1.15-6.04,3.27-8.27,5.7-2.64,2.87-.22,5.72,1.58,8.17,1.57,2.13,3.51,1.41,5.53.47,2.94-1.37,2.46-3.41,1.62-5.81-.83-2.37-.03-4.21,2.6-4.53,3.56-.45,7.16-.65,10.75-.86,1.39-.08,3.08-.23,2.6,2.11-1.52.71-3.04,1.41-4.56,2.12-.3.72-.59,1.43-.89,2.15l-.04,1.93c-.02.77-.05,1.54-.07,2.31-.43,1.6-.86,3.2-1.28,4.81.58,2.32,1.16,4.65,1.74,6.97.2.53.39,1.05.59,1.58,0,.25.07.48.21.69,1.71,2.38,3.43,4.77,5.14,7.15,1.44-.27,2.88-.54,4.32-.81,0,0,.18.09.18.09l.2-.05c1.51-.23,3.02-.47,4.53-.7,1.32,1.52,2.56,3.14,4,4.55,1.56,1.54,4.32.93,4.63-1.03.44-2.76.56-5.57.82-8.36,1.04-.54,2.07-1.07,3.11-1.61,1.56.06,3.13.12,4.69.19,2.35,7.42,10.44,8.51,14.77,14.5.59-2.06.89-3.14,1.25-4.41-3.14.84-5.16-.96-5.9-4.82.74,0,1.47,0,2.21-.01.55-.21,1.11-.43,1.66-.64.5.27,1.01.55,1.51.82.25.64.51,1.29.76,1.93.3-.34.6-.69.89-1.03,1.48-.54,4.16.75,3.84-2.52.28-.88.55-1.76.83-2.64.41,0,.81.02,1.22.03l1.07-.38c.94-.42,1.85-.94,2.83-1.24,5.08-1.56,9.82-4.72,15.53-3.29Z"/>
        <path class="cls-26"
              d="M679.75,496.6c-.41,0-.81-.02-1.22-.03-.29-1.2-.59-2.39-.88-3.59-2.58-10-5.16-20-7.93-30.74,6.05-1.53,12.63-3.13,19.17-4.86,8.43-2.23,16.79-4.76,25.26-6.78,6.76-1.61,13.65-2.65,20.49-3.94-6.42,11.27-14.66,21.17-23.14,30.9-2.87,3.29-5.46,6.83-8.28,10.16-1.22,1.44-2.69,2.66-4.05,3.98-5.71-1.44-10.45,1.73-15.53,3.29-.98.3-1.89.82-2.83,1.24-.36.13-.71.25-1.07.38Z"/>
        <path class="cls-31"
              d="M44.82,441.58l1.91-1.36c.13.17.26.33.4.5-.57.52-1.15,1.05-1.72,1.57-.19-.24-.39-.48-.58-.71Z"/>
        <path class="cls-14"
              d="M460.14,418.44c2.33.73,4.7.9,6.29,2.1,4.06,3.08,7.85,6.52,11.59,10,4.48,4.18,9.02,8.33,13.13,12.86,8.19,9.04,12.81,19.93,15.75,31.66,1.19,4.74-.12,9.06-2.92,12.29-15.13,17.41-32.89,30.56-56.81,32.84-2.63.25-5.98,1.08-6.34-3.35-.02-.24-.34-.58-.26-.7,4.06-6.4-1.15-12.26-1.06-18.41.02-1.12.21-2.26.43-3.37,1.46-7.39,3.3-14.74,4.34-22.19.88-6.3.49-12.69,4.07-18.52,6.44-10.49,9.73-22.16,11.81-35.22Z"/>
        <path class="cls-14"
              d="M1081.23,515.29c3.11-2.95,3.34-5.73,1.36-10.09-2.22-4.9-2.95-9.27-.05-14.86,2.65-5.09,3.34-11.72,3.2-17.63-.28-11.32,4.62-20.58,9.23-30.3,2.94-6.19,4.04-13.26,5.92-19.95.34-1.21.44-2.48.85-4.91,3.43,1.8,6.81,2.85,9.24,4.98,5.85,5.14,11.07,11,16.88,16.2,10.7,9.58,16.5,21.83,20.19,35.36,1.7,6.22-1.01,11.14-4.9,15.42-3.43,3.77-7.24,7.25-11.19,10.49-12.4,10.18-25.97,17.92-42.4,19.33-5.09.44-5.09.48-8.33-4.03Z"/>
        <path class="cls-19"
              d="M326.08,424.58c1.01-8.7,1.99-17.09,2.95-25.48.09-.77.24-1.56.13-2.3-.9-5.98-.2-7.91,5.54-7.37,11.58,1.1,22.09-2.81,32.98-5.11.48-.1.96-.14,1.48-.22-.35,10.92-16.85,26.4-43.08,40.47Z"/>
        <path class="cls-13"
              d="M579.75,412.95s-.23.22-.23.22c-1.13-.28-2.25-.57-3.38-.85-2.93-1.9-2.76-3.82-.39-6.21,2.05-2.06,3.57-4.64,5.62-6.7,1.36-1.37,3.29-3.2,4.89-3.13,7.17.31,12.95-3.59,19.32-5.67,1.86-.48,3.73-.96,5.59-1.44,1.51.21,3.03.58,4.54.6,9.04.14,20.78,9.39,18.68,20.13-.17.88.66,2.19,1.38,2.97,6.38,6.86,9.17,14.8,7.75,24.17-.15,1.01.09,2.51.76,3.15,6,5.74,8.75,8.18,17.32,4.51.44-.19.95-.2,1.45-.3.2,3.94-2.53,7-7.87,9-1.33.04-2.65.08-3.98.12-2.48-.93-5.17-1.52-7.4-2.87-5.95-3.62-5.87-3.75-10,1.72-2.72,1.47-5.45,2.94-8.17,4.41-1.62.02-3.29-.23-4.84.11-6.76,1.47-12.38-.45-16.94-5.51-2.32-2.58-1.71-8.9.94-11.26,1.91-1.7,3.81-3.4,5.71-5.11,1.93-.87,3.87-1.74,5.8-2.61,3.38.39,4.87,3.4,3.7,7.51-.69.12-1.38.24-2.07.36-.59.17-1.17.34-1.76.5-.87,1-1.74,2-2.6,3.01l.14,2.89c2.32,2.76,5.17,2.29,8.09,1.34,2.04-1.06,4.08-2.13,6.12-3.19.94-.95,1.87-1.9,2.81-2.85l-2.88-2.43c-.72-2.11-1.44-4.21-2.16-6.32.26-.66.53-1.33.79-1.99,2.32-.03,4.65-.05,6.97-.08-.55-2.65-1.08-5.3-1.68-7.93-.11-.46-.54-.85-1.31-2.03-2.28,2.42-4.14,4.4-5.99,6.37l-8.13,4.9c-2.34.27-4.67.53-7.01.8-4.56-.02-9.22.56-12.67-3.63-6.8-8.28.86-18,7.79-20.61,1.91-.72,3.83-1.41,5.75-2.11,3.53.4,1.6,3.73,2.74,5.45.17.26-1.49,1.81-2.38,2.69-.73.74-1.57,1.37-2.36,2.05-.91.69-1.84,1.37-2.74,2.09-2.82,2.25-2.6,3.42.73,4.86,3.33,1.43,6.19.6,8.89-1.47,2.89-2.37,5.77-4.74,9.61-7.9-6.4-1.11-7.03-4.87-6.92-9.06,1.07.17,2.15.33,3.22.5.74.06,1.48.12,2.22.18-.03-.67-.06-1.33-.09-2-1.68-2.94-3.56-5.58-7.52-5.19-2.35.04-4.7.08-7.05.12-5.08,0-8.86,2.1-11.13,6.75-.33.68-.78,1.49-1.39,1.8-3.25,1.64-6.58,3.03-8.29,6.71-.21.45-2.76-.04-4.16-.37-.77-.18-1.41-.95-2.1-1.46-.58.1-1.16.2-1.75.3Z"/>
        <path class="cls-20"
              d="M651.21,453.52c1.33-.04,2.65-.08,3.98-.12.28.81.44,1.68.85,2.42,2.61,4.69,1.44,8.31-3.31,10.74-2.12,1.08-4.03,2.57-6.04,3.87-1.82-.24-3.64-.49-5.45-.73-1.06.14-2.2.07-3.18.45-2.85,1.09-5.63,2.36-8.43,3.56l-.23-.27c.47-2.35-1.21-2.2-2.6-2.11-3.59.21-7.19.41-10.75.86-2.63.33-3.43,2.17-2.6,4.53.84,2.4,1.33,4.44-1.62,5.81-2.02.94-3.96,1.67-5.53-.47-1.81-2.45-4.23-5.3-1.58-8.17,2.23-2.42,5.21-4.54,8.27-5.7,3.39-1.28,7.25-1.35,10.92-1.87,2.37-.34,4-.9,2.83-3.93-.68-1.75-.76-3.74-1.11-5.62,2.72-1.47,5.45-2.94,8.17-4.41.97,3.2,1.75,6.47,2.99,9.56.57,1.43,2.16,3.62,3.07,3.52,3.32-.37,7.28-.31,8.97-4.11,1.1-2.47,1.6-5.21,2.37-7.83Z"/>
        <path class="cls-7"
              d="M647.82,471.18s.23-.08.23-.08c1.9,1.31,3.79,2.63,5.68,3.94,0,0-.05.04-.05.04.43,2.52.81,5.05,1.31,7.56,1.59,7.97,1.17,9.38-3.7,11.9-.92-.6-2.44-1.03-2.67-1.84-1.25-4.33-2.17-8.75-3.36-13.77-2.19-1.16-4.99-1.54-7.46,1.47-.43.53-1.33.67-2.01.99-.54-1.6-1.08-3.21-1.62-4.81,1.51-3.4,4.64-4.42,7.84-5.33,1.94-.03,3.88-.05,5.81-.08Z"/>
        <path class="cls-25"
              d="M635.78,481.4c.68-.32,1.58-.46,2.01-.99,2.47-3.01,5.28-2.63,7.46-1.47,1.19,5.02,2.11,9.44,3.36,13.77.23.8,1.75,1.23,2.67,1.84.24.22.48.44.72.66-1.04.54-2.07,1.07-3.11,1.61-1.62.32-3.43.29-4.82,1.04-1.72.93-3.1,2.51-4.62,3.81-1.51.23-3.02.47-4.52.7.94-.88,1.81-1.86,2.84-2.62,2.51-1.85,5.1-3.59,7.66-5.37-.23-.36-.46-.73-.68-1.09-2.28.44-4.55.89-6.83,1.33-.08-.27-.17-.55-.25-.82,1.83-1.37,3.65-2.74,5.48-4.11-.25-.47-.5-.94-.75-1.41-6.2,1.18-12.84.69-18.1,5.45-.58-2.32-1.16-4.65-1.74-6.97,2.53,2.82,5.53,2.83,8.88,1.68,2.9-.99,5.93-1.59,8.82-2.6.69-.24,1.04-1.45,1.55-2.21-1.05-.33-2.59-1.29-3.09-.9-5.26,4.03-10.04,1.59-14.87-.78.02-.77.05-1.54.08-2.31,2.06.52,4.75.41,6.02,1.69,2.29,2.32,3.88,1.73,5.84.08Z"/>
        <path class="cls-22"
              d="M624.3,493.72c5.26-4.77,11.9-4.27,18.1-5.45.25.47.5.94.75,1.41-1.83,1.37-3.65,2.74-5.48,4.11.08.27.17.55.25.82,2.28-.44,4.55-.89,6.83-1.33.23.36.46.73.68,1.09-2.56,1.78-5.14,3.53-7.66,5.37-1.03.76-1.9,1.74-2.84,2.62,0,0-.2.05-.2.05,0,0-.18-.09-.18-.09-1.44.27-2.88.54-4.32.81-1.71-2.38-3.43-4.77-5.14-7.15.07-.09.21-.22.19-.25-.11-.16-.26-.3-.4-.44-.2-.53-.39-1.05-.59-1.58Z"/>
        <path class="cls-10"
              d="M608.22,417.09c.79-.68,1.63-1.31,2.36-2.05.88-.88,2.55-2.43,2.38-2.69-1.14-1.72.8-5.05-2.74-5.45-.55-2.56-1.1-5.12-1.65-7.69,2.35-.04,4.7-.08,7.05-.12.72,2.17,1.45,4.34,2.17,6.51-.11,4.19.52,7.95,6.92,9.06-3.84,3.15-6.72,5.52-9.61,7.89q-1.87-7.02-6.89-5.47Z"/>
        <path class="cls-3"
              d="M611.17,389.17c-1.86.48-3.73.96-5.59,1.44-1.16-4.64-2.48-9.25-3.38-13.95-.33-1.74-.06-5.09.59-5.26,3.13-.83,3.51,2.07,4.2,4.21,1.44,4.51,2.79,9.04,4.18,13.56Z"/>
        <path class="cls-9"
              d="M623.85,481.94c4.84,2.37,9.62,4.81,14.87.78.5-.39,2.04.57,3.09.9-.51.76-.86,1.96-1.55,2.21-2.89,1.01-5.92,1.61-8.82,2.6-3.35,1.15-6.34,1.13-8.88-1.68.43-1.6.86-3.2,1.28-4.81Z"/>
        <path class="cls-20"
              d="M639.46,501.66c1.53-1.3,2.9-2.87,4.62-3.81,1.39-.75,3.2-.72,4.82-1.04-.26,2.79-.38,5.6-.82,8.36-.31,1.96-3.08,2.57-4.63,1.03-1.43-1.41-2.67-3.03-4-4.55Z"/>
        <path class="cls-18"
              d="M666.82,500.67c.74,3.86,2.76,5.66,5.9,4.82-.36,1.27-.67,2.34-1.25,4.41-4.33-5.98-12.41-7.07-14.77-14.5,1.38.48,2.76.97,4.15,1.42,1.72.57,3.45,1.1,5.18,1.65.26.73.52,1.47.79,2.2Z"/>
        <path class="cls-9"
              d="M635.78,481.4c-1.96,1.66-3.55,2.24-5.84-.08-1.27-1.29-3.97-1.17-6.02-1.69.01-.65.03-1.29.04-1.94.3-.72.59-1.43.89-2.14,1.52-.71,3.04-1.41,4.56-2.12,0,0,.22.27.22.27.23,1.73.47,3.46.77,5.7,1.12-.83,2.44-1.82,3.77-2.81l1.62,4.81Z"/>
        <path class="cls-6"
              d="M666.03,498.47c-1.73-.55-3.46-1.08-5.18-1.65-1.39-.46-2.77-.95-4.15-1.42-1.56-.06-3.13-.12-4.69-.19-.24-.22-.48-.44-.72-.66,4.87-2.52,5.29-3.93,3.7-11.9-.5-2.51-.88-5.04-1.31-7.56,1.05,4.58,2.57,9.11,2.99,13.74.31,3.34.43,5.65,4.53,5.9,1.66.1,3.24,1.37,4.86,2.1-.01.55-.02,1.09-.03,1.64Z"/>
        <path class="cls-23"
              d="M576.15,412.32c1.13.28,2.25.57,3.38.85-1.66,2.85-3.33,5.71-4.99,8.57-.63-.29-1.26-.58-1.89-.87.7-1.82,1.38-3.65,2.11-5.45.42-1.05.92-2.06,1.39-3.09Z"/>
        <path class="cls-21"
              d="M666.03,498.47c.01-.55.02-1.09.03-1.64,3.86.78,7.73,1.56,11.59,2.34,0,0,.04.04.04.04.32,3.27-2.36,1.98-3.84,2.52-.55-.3-1.1-.6-1.66-.9-.5-.27-1.01-.55-1.51-.82-.55.21-1.11.43-1.66.64-.74,0-1.47,0-2.21.01-.26-.73-.52-1.47-.79-2.2Z"/>
        <path class="cls-6"
              d="M653.73,475.04c-1.89-1.31-3.79-2.63-5.68-3.94,1.61-.08,3.21-.17,5.39-.28.1,1.39.19,2.81.29,4.22Z"/>
        <path class="cls-17"
              d="M616.31,432.39c-1.93.87-3.87,1.74-5.8,2.61-.39-.59-.77-1.17-1.16-1.76,2.34-.27,4.67-.53,7.01-.8,0,0-.05-.06-.05-.06Z"/>
        <path class="cls-21"
              d="M677.65,492.98c.29,1.2.59,2.39.88,3.59-.28.88-.55,1.76-.83,2.64,0,0-.04-.04-.04-.04,0-2.06,0-4.13-.01-6.19Z"/>
        <path class="cls-6"
              d="M647.82,471.18c-1.94.03-3.88.05-5.81.08-.26-.52-.51-1.04-.76-1.56,1.82.24,3.64.49,5.45.73.38.25.75.5,1.13.75Z"/>
        <path class="cls-25" d="M630.24,503.15c1.44-.27,2.88-.54,4.32-.81-1.44.27-2.88.54-4.32.81Z"/>
        <path class="cls-18" d="M672.2,500.83c.55.3,1.1.6,1.66.9-.3.35-.6.69-.89,1.04-.25-.64-.51-1.29-.76-1.93Z"/>
        <path class="cls-18" d="M669.03,500.66c.55-.21,1.11-.43,1.66-.64-.55.21-1.11.43-1.66.64Z"/>
        <path class="cls-25" d="M624.85,475.55c-.3.71-.59,1.43-.89,2.14.3-.71.59-1.43.89-2.14Z"/>
        <path class="cls-23" d="M579.75,412.95c.58-.1,1.16-.2,1.75-.3-.58.1-1.16.2-1.75.3Z"/>
        <path class="cls-25" d="M624.89,495.3c.14.14.28.28.4.44.02.03-.12.16-.19.25-.14-.21-.2-.44-.21-.69Z"/>
        <path class="cls-21" d="M679.75,496.6c.36-.13.71-.25,1.07-.38-.36.13-.71.25-1.07.38Z"/>
        <path class="cls-19"
              d="M651.21,453.52c-.77,2.62-1.27,5.36-2.37,7.83-1.69,3.8-5.65,3.73-8.97,4.11-.91.1-2.5-2.09-3.07-3.52-1.24-3.09-2.02-6.37-2.99-9.56,4.13-5.47,4.05-5.34,10-1.72,2.23,1.35,4.92,1.94,7.4,2.87Z"/>
        <path class="cls-17"
              d="M625.72,433.21c.72,2.11,1.44,4.21,2.16,6.32.02,1.76.04,3.52.07,5.28-2.04,1.06-4.08,2.13-6.12,3.19-.6-2.7-1.2-5.4-1.8-8.1,1.16-4.1-.32-7.11-3.7-7.51,0,0,.05.06.04.06,2.71-1.63,5.42-3.27,8.13-4.9.42.98.85,1.96,1.27,2.94-.02.91-.03,1.81-.05,2.72Z"/>
        <path class="cls-18"
              d="M608.22,417.09q5.02-1.54,6.89,5.47c-2.7,2.07-5.57,2.91-8.89,1.47-3.33-1.44-3.55-2.6-.73-4.86.9-.72,1.83-1.39,2.74-2.09Z"/>
        <path class="cls-18"
              d="M625.76,430.49c-.42-.98-.85-1.96-1.27-2.94,1.86-1.98,3.72-3.95,5.99-6.37.78,1.17,1.21,1.56,1.31,2.03.6,2.63,1.13,5.29,1.68,7.93-2.32.03-4.65.05-6.97.08-.25-.24-.5-.48-.75-.73Z"/>
        <path class="cls-19"
              d="M620.02,439.9c.6,2.7,1.2,5.4,1.8,8.1-2.93.95-5.78,1.43-8.09-1.34-.05-.96-.09-1.93-.14-2.89.87-1,1.74-2,2.61-3.01.59-.17,1.17-.34,1.76-.5.69-.12,1.38-.24,2.07-.36Z"/>
        <path class="cls-18"
              d="M617.79,405.61c-.72-2.17-1.45-4.34-2.17-6.51,3.97-.38,5.85,2.25,7.52,5.19-.71.61-1.42,1.21-2.13,1.82-1.07-.17-2.15-.33-3.22-.5Z"/>
        <path class="cls-15"
              d="M627.95,444.81c-.02-1.76-.04-3.52-.07-5.28.96.81,1.92,1.62,2.88,2.43-.94.95-1.87,1.9-2.81,2.85Z"/>
        <path class="cls-10"
              d="M621.01,406.11c.71-.61,1.42-1.21,2.13-1.82.03.67.06,1.33.09,2-.74-.06-1.48-.12-2.22-.18Z"/>
        <path class="cls-17" d="M613.59,443.77c.05.96.1,1.93.14,2.89-.05-.96-.09-1.93-.14-2.89Z"/>
        <path class="cls-15" d="M625.76,430.49c.25.24.5.48.75.73-.26.66-.53,1.33-.79,1.99.02-.91.03-1.81.05-2.72Z"/>
        <path class="cls-17" d="M617.95,440.26c-.59.17-1.17.34-1.76.5.59-.17,1.17-.34,1.76-.5Z"/>
        <path class="cls-25"
              d="M641.24,469.7c.25.52.51,1.04.76,1.56-3.2.91-6.33,1.94-7.84,5.33-1.33.99-2.65,1.97-3.77,2.81-.3-2.24-.54-3.97-.77-5.7,2.81-1.2,5.59-2.46,8.43-3.56.97-.37,2.11-.31,3.18-.45Z"/>
    </g>
    <g>
        <path class="cls-1"
              d="M896.93,830.15c-5.82.61-12.1,2.01-18.3,1.73-8.77-.4-16.29-4.33-21.26-11.89-3.49-5.32-3.4-5.55-9.19-7.17,1.68-8.36,6.23-17.78-7.01-21.44,2.01-3.65,6.31-6.71,4.78-11.89-.81-2.75-2.13-5.34-3.19-8.01-1.26-3.18-2.61-6.33-3.7-9.57-.97-2.89-1.4-5.74-5.59-6.02-1.25-.08-2.71-2.86-3.34-4.67-.56-1.62-.12-3.59-.12-5.94,4.47-1.48,8.79-3.13,13.23-4.33,4.9-1.33,10.06,2.64,11.89,7.5,1.96,5.2,2.6,10.76,4.34,15.76,2.37,6.84,3.81,13.54,4.79,20.64.64,4.62,3.7,8.9,5.66,13.34,1.31,2.96,1.83,6.84,4.05,8.67,3.51,2.89,4.65,8.15,10.61,9.01,3.14.46,5.6,4.98,8.59,7.4,1.04.84,2.73.87,5.46,1.66-.73-13.54-1.49-26.27-2.08-39.01-.34-7.45-.35-14.92-.63-22.38-.14-3.71-.88-7.19-4.23-9.63-.63-.46-.88-2.79-.52-3.02,3.27-2.05,6.55-4.31,10.16-5.52,2.4-.8,3.96.68,6.09,3.3,3.88,4.78,1.68,9.31,2.5,13.82.8,4.42,1.29,8.89,2.12,13.3.17.88,1.12,2.09,1.93,2.3,8.47,2.26,11.57,11.77,20.13,14.38,4.18,1.27,7.32,5.79,11.1,8.6,1.5,1.12,3.56,1.45,5.21,2.42,4.03,2.38,7.91,5.02,11.99,7.31,1.04.58,2.59.25,4.3.36,0-10.73.18-21.31-.08-31.87-.12-4.9-.87-9.83-1.81-14.65-.54-2.78-1.35-6.05-3.23-7.89-3.3-3.24-.89-5.44.35-7.97,2.79-5.7,9.05-7.67,12.61-3.45,2.02,2.4,2.79,6.18,3.24,9.47.54,3.92-.16,7.99.23,11.95.27,2.8,1.48,5.5,2.21,8.26.32,1.23.66,2.5.66,3.76.05,13.8-.26,27.61.22,41.4.13,3.76-2.78,3.95-4.12,5.88-1.66,2.39-3.11,2.38-5.95.4-2.77-1.93-7.07-2.26-10.69-2.25-6.84.03-11.84-3.21-17.14-7.01-6.5-4.66-13.81-8.19-20.69-12.33-1.9-1.15-3.55-2.72-5.29-4.14-1.36-1.11-2.68-2.28-4.02-3.42-.41.38-.83.75-1.24,1.13,0,11.78-.04,23.56.01,35.34.04,9.18.77,7.93-5.98,15.19-3.24-2.57-5.5-5.3-5.28-10.07.12-2.63-2.23-5.38-3.77-8.74Z"/>
        <path class="cls-29"
              d="M408.7,832.06c-2.16,0-4.33,0-6.49,0-5.39,0-9.68-3.96-9.83-9.34-.7-25.24-1.23-50.49-2.06-75.74-.22-6.66-.96-13.35-2.04-19.93-.72-4.36,2.22-7.28,4.63-8.27,6.21-2.54,12.76-8.83,19.8-1.03.73.81,2.88.6,4.33.45,10.29-1.03,19.87,1.73,28.87,6.14,9.21,4.52,17.44,10.64,24.41,18.29,5.8,6.36,9.37,13.56,9.03,22.43-.19,4.96.42,9.98-.13,14.88-1.34,12-4.31,23.27-15.7,30.25-2.85,1.75-4.49,4.89-8.6,5.38-2.25.27-2.93,4.34-6.72,5.05-3.57.66-6.64,4.06-9.92,6.27-.47.32-.86.95-1.35,1.04-4.65.77-9.34,1.38-13.99,2.2-4.71.83-9.39,1.85-14.08,2.79-.06-.28-.11-.57-.17-.85ZM451.09,812.82c4.68-6.26,9.72-11.5,10.64-19.8.86-7.77,1.12-14.99.31-22.86-.88-8.55-5.95-13.79-9.41-20.47-3.71-7.14-11.21-8.83-16.72-13.17-5.96-4.7-13.83-7.19-22.92-4.57-1.46,8.31-4.05,17.21-4.4,26.18-.71,18.43-.51,36.92.09,55.36.1,2.93,4.09,7.98,6.56,8.16,7.2.51,14.54-.94,21.83-1.64.31-.03.72-.13.89-.35,3.53-4.55,9.26-4.6,13.12-6.83Z"/>
        <path class="cls-2"
              d="M354.09,769.12c-.94,7.57-1.14,14.68-2.85,21.41-1.98,7.83-5.89,15.15-10.96,21.4-3.97,4.88-9.12,8.88-14.11,12.82-2.15,1.7-5.12,2.71-7.87,3.21-5.51,1-11.16,2.16-16.69,1.9-4.95-.23-9.82-2.27-14.72-3.53-2.82-.72-5.65-1.41-8.45-2.21-4.62-1.31-9.21-2.71-13.83-4.05-.31-.09-.88.06-.96-.1-2.84-5.18-10.06-5.17-12.68-9.47-3.31-5.44-7.89-9.85-9.95-16.65-3.31-10.94-4.09-21.78-3.3-32.74.55-7.58,3.41-14.65,8.55-21.01,4.16-5.15,8.91-9.23,14.23-12.72,11.93-7.83,25.15-11.29,39.31-9,7.96,1.29,15.83,3.57,23.45,6.22,3.35,1.16,5.81,4.66,8.99,6.56,6.22,3.73,12.22,7.61,16.03,14.03,1.19,2,2.58,4.08,3.02,6.3,1.19,5.96,1.92,12.02,2.77,17.62ZM295.48,822.29c4.27-.8,8.23-1.53,12.19-2.29.28-.05.5-.36.76-.53,2.36-1.5,5.07-2.65,7.02-4.56,3.88-3.79,7.65-7.78,10.86-12.14,1.67-2.27,1.51-5.86,3.13-8.21,4.62-6.71,8.02-13.69,8.08-22.03,0-.91,1.5-1.76,1.63-2.73.43-3.23.93-6.53.66-9.75-.19-2.3-1.45-4.55-2.4-6.76-1.44-3.36-2.25-7.48-4.71-9.83-5.45-5.21-11.37-10.18-17.85-13.97-4.67-2.72-10.81-5.15-15.82-4.44-4.99.71-10.82,1.2-15.36,5.92-3.79,3.94-10.6,4.5-14.25,9.51-1.67,2.29-3.75,4.29-5.52,6.52-2.2,2.77-5.13,5.35-6.2,8.53-1.99,5.91-3.48,12.14-3.99,18.33-.38,4.68,1.49,9.5,1.66,14.29.31,8.5,4.02,15.25,10,20.85,4.1,3.84,9.17,6.03,14.32,8.37,5.26,2.38,10.49,3.84,15.77,4.9Z"/>
        <path class="cls-1"
              d="M575.31,756.06c-.03-1.16.07-2.34-.1-3.49-.81-5.45.92-9.12,6.85-9.78,1.19-.13,2.78-.25,3.58.38,3.72,2.95,7.01,6.39,6.49,11.64-.2,2.01-2.07,4.09-1.73,5.86.91,4.76,4.34,7.94,8.43,10.32,2.57,1.49,5.44,2.53,7.87,4.21,4.12,2.84,7.89,6.19,12.02,9.01,4.19,2.86,8.62,5.35,12.97,7.98,2.45,1.48,4.94,2.9,7.68,4.5,5.09-10.38,2.26-20.89,2.65-31.06.15-3.96-1.6-7.96-1.75-11.97-.29-7.63,2.7-10.51,10.26-10.62,1.78-.03,3.57.16,5.42.25v83.59c-1.93,1.12-3.45,2.11-5.07,2.91-3.48,1.73-8.27-.9-8.65-4.89-.33-3.52,1.03-7.61-2.96-9.81-2.99-1.65-6.31-2.7-9.46-4.08-3.52-1.54-7.05-3.07-10.49-4.77-3.27-1.61-6.5-3.32-9.63-5.18-2.83-1.68-5.38-3.85-8.29-5.36-3.6-1.86-7.43-3.26-12.24-5.32-.73,7.68-1.83,14.02-1.8,20.34.04,7.78-1.04,14.69-8.12,19.08-5.11-1.36-4-5.51-4-9.12,0-14.47.05-28.94.08-43.41.97-.87,2.73-1.71,2.78-2.63.26-5.3.26-10.63-.01-15.93-.05-.94-1.81-1.78-2.78-2.67Z"/>
        <path class="cls-29"
              d="M1044.32,773.22c-2.12-1.47-3.8-3.48-5.73-3.77-2.53-.38-2.1-1.89-2.97-3.3-1.62-2.61-4.43-4.51-6.84-6.61-2.57-2.25-17.95-4.32-20.72-3.09-7.89,3.51-9.93,9.91-9.66,17.91.2,6.19,1.43,11.51,7.47,14.55,2.06,1.04,3.99,2.63,6.17,3.09,4.8,1.01,9.71,1.62,14.6,2.08,5.34.5,10.35.94,13.57,6.39,1.36,2.3,5,3.23,6.45,5.51,5.52,8.67.5,23.65-9.17,28.4-4.64,2.28-9.19,3.43-13.9,4.99-10.1,3.33-19,.16-28.32-2.24-4.29-1.11-10.61-9.47-9.98-13.81,2.26-1.02,4.35-2.41,6.62-2.85,1.56-.3,3.62.35,5.02,1.25,5,3.19,9.4,8.08,14.8,9.67,6.12,1.8,13.07,1.9,19.27-2.33,3.55-2.42,5.94-5.31,6.7-9.21.97-4.93-4.56-11.79-10.11-12.67-5.97-.94-12.13-.92-18.01-2.2-6.48-1.41-12.67-3.01-18.13-8.08-5.12-4.76-7.61-9.22-6.66-15.95.32-2.28.06-4.65.06-6.98,0-8.92,9.43-19.85,18.49-21.85,4.43-.98,8.66-2.98,13.12-3.68,2.31-.36,4.88,1.56,7.37,1.66,6.15.27,12.32.19,18.47.05,3.01-.07,3.8,1.17,4.9,4.01,2.72,7.03-1.15,12.6-2.9,19.06Z"/>
        <path class="cls-1"
              d="M709.63,747.2c2.41,0,4.24.1,6.07-.02,4.78-.3,8.56,2.28,11.75,5.04,4.14,3.58,9.34,6.16,11.55,11.89,2.29,5.92,7.2,10.78,6.23,17.99-.3,2.21,1.99,4.77,1.69,6.97-.97,7.03-2.1,14.13-4.23,20.88-.85,2.69-4.22,4.83-6.84,6.67-4.69,3.31-9.45,6.67-14.6,9.11-3.38,1.6-7.97.79-11.18,2.57-4.69,2.59-9.36,1.7-14.04,1.7-9.53,0-15.97-5.16-22.33-12.02-3.91-4.22-6.2-9.65-10.8-13.23-.68-.53-.71-2.14-.73-3.25-.08-4.49-.25-9,.05-13.47.18-2.69-1.61-5.76,2.44-7.99,1.76-.97,1.54-5.31,2.47-8.03,2.58-7.56,7.31-13.09,15.06-15.89,4.86-1.76,10.34-3.03,14.14-6.2,4.57-3.81,9.25-2.03,13.29-2.7ZM731.09,793.35c.09-9.94.55-19.54-6.25-28.47-4.02-5.28-8.29-7.87-14.24-8.62-3.11-.39-6.32-.04-9.48-.07-8.44-.09-15.72,1.51-19.05,10.78-2.52,7-7.29,13.27-5.99,21.38.41,2.59.02,5.31.09,7.97.03.94.08,2.04.56,2.78,4.41,6.77,8.26,13.88,15.31,18.7,3.23,2.21,6.1,4.01,10.1,4.36,7.85.68,14.98-1.33,21.42-5.45,4.51-2.88,8.7-6.28,7.62-12.9-.55-3.4-.1-6.97-.1-10.46Z"/>
        <path class="cls-29"
              d="M485.83,785.32c.53-2.46.87-7.18,2.58-11.35,3.33-8.1,9.27-13.92,17.28-17.88,3.9-1.93,7.14-5.2,10.69-7.86.46-.34.94-.93,1.42-.93,6.74,0,12.87-3.79,20.38-.49,9.51,4.18,18.22,8.9,24.53,17.09,4.72,6.12,8.28,13.16,8.39,21.09.06,4.99.25,10.93-2.23,14.76-3.42,5.31-4.98,11.79-11.11,15.99-3.44,2.36-7,5.6-10.62,8.22-2.67,1.93-6.06,2.93-9.22,4.06-3.65,1.31-7.39,2.41-11.14,3.41-1.55.41-3.34.77-4.83.4-4.22-1.06-8.71-1.88-12.38-4.01-3.55-2.06-6.24-5.6-9.23-8.56-.58-.57-.68-1.65-1.28-2.17-3.6-3.08-5.45-7.71-8.24-10.87-5.34-6.03-3.83-12.34-4.98-20.9ZM557.08,790.13l-2-13.12c-.8-5.57-5.9-8.04-9.14-11.57-4.77-5.19-11.08-8.89-18.68-9.08-4.44-.12-9.03-1.19-12.96,1.98-6.46,1.08-15.67,11.95-15.82,18.68-.05,3.37-.27,6.76-.07,10.12.06,1.07,1.21,2.08,1.86,3.12.15,1.79-.18,3.81.53,5.34,2.04,4.39,4.23,8.76,6.89,12.78,1.69,2.55,4.34,4.46,6.55,6.66,3.85,3.24,7.49,6.86,13.04,6.86,8.45-.73,16.95-1.31,23.19-8.26.87-.97,2.19-1.65,2.79-2.75,3.58-6.47,4.75-13.44,3.82-20.76Z"/>
        <path class="cls-1"
              d="M793.03,806.05c.83-3.14,1.21-5.51,2.1-7.68.73-1.79,1.92-3.43,3.13-4.96,3.47-4.37,4.34-9.74,6.33-14.65,1.36-3.35,2.68-6.4,2.29-9.8-.26-2.23-2.17-4.22-2.72-6.46-.78-3.22-1-6.58-1.51-10.3,4.15,0,8.76-.14,13.36.1,1.16.06,2.5,1.09,3.35,2.04,1.63,1.83.46,13.07-1.03,15.22-1.67,2.4-2.98,5.05-4.31,7.66-2.42,4.76-3.7,10.68-7.36,14.09-5.5,5.12-4.36,12.67-8.63,17.84-4.34,5.26-4.14,12.27-7.16,17.94-1.12,2.1-3.99,3.28-6.16,4.96-15.44-30.13-30.87-60.25-46.51-90.78,4.65,0,9.24-.18,13.81.06,2.99.16,8.87,6.62,9.05,9.51.2,3.26,1.5,5.62,4.22,7.75,1.59,1.24,1.76,4.21,2.76,6.31,2.59,5.44,5.61,10.71,7.86,16.28,2.74,6.79,9.55,11.2,10.56,19.11.23,1.81,3.56,3.24,6.58,5.79Z"/>
        <path class="cls-11"
              d="M823.38,804.96c1.98,5.36,2.44,11.23,5.59,13.77,3.12,2.52,8.96,1.68,13.95,2.36-6.48,6.44-12.66,13.56-23.28,12.96-4.63-.26-8.1-2.73-10.38-6.61-1.63-2.77.45-10.2,3.07-12.88,2.34-2.39,4.36-5.11,6.83-7.35,1.38-1.25,3.38-1.81,4.22-2.24Z"/>
        <path class="cls-2"
              d="M365.42,709.45c0,2.45.25,4.93-.05,7.34-.59,4.76,2.21,7.16,5.64,9.61,3.03,2.17,6.28,4.59,8.02,7.7.74,1.32-1.72,4.95-3.37,7.01-4.47,5.6-5.17,5.45-10.82.11-2.75-2.6-5.79-4.91-8.47-7.58-4.18-4.18-3.9-7.11-.32-11.79,1.96-2.57,2.55-6.18,4.52-8.73,1.05-1.36,3.71-1.47,5.65-2.14l-.79-1.52Z"/>
        <path class="cls-27"
              d="M575.31,756.06c.97.89,2.73,1.74,2.78,2.67.27,5.3.28,10.63.01,15.93-.05.92-1.81,1.75-2.78,2.63,0-7.08,0-14.15-.01-21.23Z"/>
        <path class="cls-24"
              d="M500.26,790.25c-.65-1.04-1.8-2.05-1.86-3.12-.2-3.36.02-6.74.07-10.12,5.09,0,10.17,0,15.82,0v-18.68c3.94-3.17,8.52-2.1,12.96-1.98,0,6.74,0,13.48,0,20.65h27.82c.67,4.37,1.33,8.75,2,13.12-9.85,0-19.7,0-29.8,0v31.77c-5.55,0-9.19-3.63-13.04-6.86,0-8.23,0-16.46,0-24.78h-13.98Z"/>
        <path class="cls-28"
              d="M527.27,821.9v-31.77c10.1,0,19.95,0,29.8,0,.94,7.33-.24,14.29-3.82,20.77-.6,1.09-1.92,1.77-2.79,2.75-6.24,6.96-14.74,7.53-23.19,8.26Z"/>
        <path class="cls-8"
              d="M555.08,777.01h-27.82c0-7.17,0-13.91,0-20.65,7.6.19,13.92,3.9,18.68,9.08,3.25,3.53,8.34,6,9.14,11.57Z"/>
        <path class="cls-4"
              d="M500.26,790.25h13.98c0,8.33,0,16.56,0,24.78-2.22-2.2-4.87-4.11-6.56-6.66-2.67-4.02-4.85-8.39-6.89-12.78-.71-1.53-.38-3.55-.53-5.34Z"/>
        <path class="cls-30" d="M514.29,758.34v18.68c-5.65,0-10.74,0-15.82,0,.16-6.73,9.36-17.59,15.82-18.68Z"/>
    </g>
    <g>
        <path class="cls-5"
              d="M549.38,611.75l12.71,35.89,12.64-35.89h13.39v49.48h-10.23v-13.53l1.02-23.35-13.36,36.87h-7l-13.32-36.84,1.02,23.31v13.53h-10.19v-49.48h13.32Z"/>
        <path class="cls-5" d="M626.8,639.79h-19.57v13.25h22.97v8.19h-33.17v-49.48h33.1v8.26h-22.9v11.79h19.57v7.99Z"/>
        <path class="cls-5" d="M665.95,639.79h-19.57v13.25h22.97v8.19h-33.17v-49.48h33.1v8.26h-22.9v11.79h19.57v7.99Z"/>
        <path class="cls-5" d="M713.25,620.01h-15.16v41.22h-10.19v-41.22h-14.95v-8.26h40.3v8.26Z"/>
        <path class="cls-5"
              d="M744.18,648.25c0-1.93-.68-3.4-2.04-4.43-1.36-1.03-3.81-2.12-7.34-3.26-3.53-1.14-6.33-2.27-8.39-3.38-5.62-3.04-8.43-7.12-8.43-12.27,0-2.67.75-5.06,2.26-7.15,1.51-2.1,3.67-3.73,6.49-4.91,2.82-1.18,5.99-1.77,9.5-1.77s6.68.64,9.45,1.92c2.76,1.28,4.91,3.09,6.44,5.42,1.53,2.33,2.29,4.98,2.29,7.95h-10.19c0-2.27-.71-4.03-2.14-5.28s-3.43-1.89-6.02-1.89-4.43.53-5.81,1.58c-1.38,1.05-2.07,2.44-2.07,4.16,0,1.61.81,2.96,2.43,4.04,1.62,1.09,4,2.11,7.15,3.06,5.8,1.74,10.03,3.91,12.68,6.49s3.98,5.8,3.98,9.65c0,4.28-1.62,7.64-4.86,10.08-3.24,2.44-7.6,3.65-13.08,3.65-3.81,0-7.27-.7-10.4-2.09-3.13-1.39-5.51-3.3-7.15-5.73-1.64-2.42-2.46-5.23-2.46-8.43h10.23c0,5.46,3.26,8.19,9.79,8.19,2.42,0,4.32-.49,5.68-1.48s2.04-2.36,2.04-4.13Z"/>
    </g>
</svg>
